<svg width="1280" height="320" viewBox="0 0 1280 320" fill="none" xmlns="http://www.w3.org/2000/svg" role="img" aria-labelledby="title desc">
  <title id="title">TIMT Profile Hero</title>
  <desc id="desc">Cyber premium banner in black and red for the TIMT GitHub profile.</desc>
  <defs>
    <linearGradient id="bg" x1="0" y1="0" x2="1280" y2="320" gradientUnits="userSpaceOnUse">
      <stop offset="0" stop-color="#030303"/>
      <stop offset="0.45" stop-color="#0B0B0B"/>
      <stop offset="0.72" stop-color="#190000"/>
      <stop offset="1" stop-color="#520000"/>
    </linearGradient>
    <linearGradient id="glow" x1="240" y1="48" x2="1020" y2="272" gradientUnits="userSpaceOnUse">
      <stop offset="0" stop-color="#FF3B3B" stop-opacity="0.65"/>
      <stop offset="1" stop-color="#7A0000" stop-opacity="0.1"/>
    </linearGradient>
    <linearGradient id="line" x1="0" y1="0" x2="1" y2="0">
      <stop offset="0" stop-color="#FF4D4D" stop-opacity="0"/>
      <stop offset="0.45" stop-color="#FF4D4D"/>
      <stop offset="1" stop-color="#FF4D4D" stop-opacity="0"/>
    </linearGradient>
    <filter id="soft" x="-20%" y="-20%" width="140%" height="140%">
      <feGaussianBlur stdDeviation="18"/>
    </filter>
  </defs>

  <rect width="1280" height="320" rx="28" fill="url(#bg)"/>
  <rect x="20" y="20" width="1240" height="280" rx="18" stroke="#2A2A2A"/>
  <rect x="34" y="34" width="1212" height="252" rx="14" stroke="#111111"/>

  <g opacity="0.95">
    <path d="M0 270H1280" stroke="url(#line)" stroke-width="2"/>
    <path d="M0 82H1280" stroke="url(#line)" stroke-width="1"/>
    <path d="M180 0V320" stroke="#1A1A1A"/>
    <path d="M1088 0V320" stroke="#1A1A1A"/>
  </g>

  <g filter="url(#soft)">
    <ellipse cx="936" cy="164" rx="210" ry="88" fill="url(#glow)"/>
  </g>

  <path d="M802 88L1148 88" stroke="#5F0A0A" stroke-width="1.5"/>
  <path d="M862 126L1188 126" stroke="#3C0909" stroke-width="1.5"/>
  <path d="M802 214L1148 214" stroke="#5F0A0A" stroke-width="1.5"/>
  <path d="M862 252L1188 252" stroke="#3C0909" stroke-width="1.5"/>

  <rect x="78" y="70" width="124" height="28" rx="14" fill="#0D0D0D" stroke="#4B0A0A"/>
  <text x="140" y="88" fill="#FF6B6B" font-size="13" font-family="Verdana, Geneva, sans-serif" text-anchor="middle" letter-spacing="3.2">OTIMTT.COM</text>

  <text x="78" y="165" fill="#F5F5F5" font-size="78" font-weight="700" font-family="Verdana, Geneva, sans-serif" letter-spacing="10">TIMT</text>
  <text x="82" y="202" fill="#FF4D4D" font-size="22" font-family="Verdana, Geneva, sans-serif" letter-spacing="5.5">FULL STACK  |  LINUX  |  SECURITY</text>
  <text x="82" y="236" fill="#BBBBBB" font-size="17" font-family="Verdana, Geneva, sans-serif" letter-spacing="1.5">SOFTWARE COM IDENTIDADE VISUAL E FOCO EM PROBLEMA REAL</text>

  <g>
    <rect x="82" y="258" width="162" height="18" rx="9" fill="#161616"/>
    <rect x="252" y="258" width="126" height="18" rx="9" fill="#320000"/>
    <rect x="386" y="258" width="150" height="18" rx="9" fill="#161616"/>
  </g>

  <g opacity="0.85">
    <circle cx="1098" cy="108" r="4" fill="#FF4D4D"/>
    <circle cx="1122" cy="108" r="4" fill="#A31313"/>
    <circle cx="1146" cy="108" r="4" fill="#5B0C0C"/>
  </g>

  <g opacity="0.82">
    <path d="M818 170H1172" stroke="#AA1818" stroke-width="2"/>
    <path d="M818 182H1090" stroke="#5F0A0A" stroke-width="6"/>
    <path d="M818 202H1138" stroke="#AA1818" stroke-width="2"/>
    <path d="M818 230H1058" stroke="#5F0A0A" stroke-width="6"/>
  </g>
</svg>
